<svg width="296" height="98" viewBox="0 0 296 98" fill="none" xmlns="http://www.w3.org/2000/svg">
<line x1="4.5" y1="1.96701e-07" x2="4.5" y2="54" stroke="white" stroke-width="9"/>
<line x1="185" y1="4.5" x2="4" y2="4.5" stroke="white" stroke-width="9"/>
<line x1="291.5" y1="41" x2="291.5" y2="95" stroke="white" stroke-width="9"/>
<line x1="296" y1="93.5" x2="115" y2="93.5" stroke="white" stroke-width="9"/>
<path d="M45.8509 32.9091V62H39.7003V32.9091H45.8509ZM56.8487 49.3864V62H50.7976V40.1818H56.5646V44.0312H56.8203C57.3033 42.7623 58.1129 41.7585 59.2493 41.0199C60.3857 40.2718 61.7635 39.8977 63.3828 39.8977C64.898 39.8977 66.219 40.2292 67.3459 40.892C68.4728 41.5549 69.3487 42.5019 69.9737 43.733C70.5987 44.9545 70.9112 46.4129 70.9112 48.108V62H64.8601V49.1875C64.8696 47.8523 64.5286 46.8106 63.8374 46.0625C63.1461 45.3049 62.1944 44.9261 60.9822 44.9261C60.1679 44.9261 59.4482 45.1013 58.8232 45.4517C58.2076 45.8021 57.7247 46.3134 57.3743 46.9858C57.0334 47.6487 56.8582 48.4489 56.8487 49.3864ZM87.2855 40.1818V44.7273H74.1463V40.1818H87.2855ZM77.1293 34.9545H83.1804V55.2955C83.1804 55.8542 83.2656 56.2898 83.4361 56.6023C83.6065 56.9053 83.8433 57.1184 84.1463 57.2415C84.4588 57.3646 84.8187 57.4261 85.2259 57.4261C85.5099 57.4261 85.794 57.4025 86.0781 57.3551C86.3622 57.2983 86.58 57.2557 86.7315 57.2273L87.6832 61.7301C87.3802 61.8248 86.9541 61.9337 86.4048 62.0568C85.8556 62.1894 85.188 62.2699 84.402 62.2983C82.9437 62.3551 81.6652 62.161 80.5668 61.7159C79.4777 61.2708 78.6302 60.5795 78.0241 59.642C77.4181 58.7045 77.1198 57.5208 77.1293 56.0909V34.9545ZM100.936 62.4261C98.6918 62.4261 96.7599 61.9716 95.1406 61.0625C93.5308 60.1439 92.2902 58.8466 91.419 57.1705C90.5478 55.4848 90.1122 53.4915 90.1122 51.1903C90.1122 48.946 90.5478 46.9763 91.419 45.2812C92.2902 43.5862 93.5166 42.2652 95.098 41.3182C96.6889 40.3712 98.5545 39.8977 100.695 39.8977C102.134 39.8977 103.474 40.1297 104.714 40.5938C105.964 41.0483 107.054 41.7348 107.982 42.6534C108.919 43.572 109.648 44.7273 110.169 46.1193C110.69 47.5019 110.95 49.1212 110.95 50.9773V52.6392H92.527V48.8892H105.254C105.254 48.018 105.065 47.2462 104.686 46.5739C104.307 45.9015 103.782 45.3759 103.109 44.9972C102.446 44.6089 101.675 44.4148 100.794 44.4148C99.8755 44.4148 99.0611 44.6278 98.3509 45.054C97.6501 45.4706 97.1009 46.0341 96.7031 46.7443C96.3054 47.4451 96.1018 48.2263 96.0923 49.0881V52.6534C96.0923 53.733 96.2912 54.6657 96.6889 55.4517C97.0961 56.2377 97.669 56.8438 98.4077 57.2699C99.1463 57.696 100.022 57.9091 101.036 57.9091C101.708 57.9091 102.323 57.8144 102.882 57.625C103.441 57.4356 103.919 57.1515 104.317 56.7727C104.714 56.3939 105.018 55.9299 105.226 55.3807L110.822 55.75C110.538 57.0947 109.956 58.2689 109.075 59.2727C108.204 60.267 107.077 61.0436 105.695 61.6023C104.321 62.1515 102.735 62.4261 100.936 62.4261ZM114.899 62V40.1818H120.766V43.9886H120.993C121.391 42.6345 122.058 41.6117 122.996 40.9205C123.933 40.2197 125.013 39.8693 126.234 39.8693C126.537 39.8693 126.864 39.8883 127.214 39.9261C127.565 39.964 127.873 40.0161 128.138 40.0824V45.4517C127.854 45.3665 127.461 45.2907 126.959 45.2244C126.457 45.1581 125.998 45.125 125.581 45.125C124.691 45.125 123.895 45.3191 123.195 45.7074C122.503 46.0862 121.954 46.6165 121.547 47.2983C121.149 47.9801 120.95 48.7661 120.95 49.6562V62H114.899ZM137.317 49.3864V62H131.266V40.1818H137.033V44.0312H137.289C137.772 42.7623 138.582 41.7585 139.718 41.0199C140.854 40.2718 142.232 39.8977 143.852 39.8977C145.367 39.8977 146.688 40.2292 147.815 40.892C148.942 41.5549 149.817 42.5019 150.442 43.733C151.067 44.9545 151.38 46.4129 151.38 48.108V62H145.329V49.1875C145.338 47.8523 144.997 46.8106 144.306 46.0625C143.615 45.3049 142.663 44.9261 141.451 44.9261C140.637 44.9261 139.917 45.1013 139.292 45.4517C138.676 45.8021 138.193 46.3134 137.843 46.9858C137.502 47.6487 137.327 48.4489 137.317 49.3864ZM174.303 46.4034L168.763 46.7443C168.668 46.2708 168.464 45.8447 168.152 45.4659C167.839 45.0777 167.428 44.7699 166.916 44.5426C166.414 44.3059 165.813 44.1875 165.112 44.1875C164.175 44.1875 163.384 44.3864 162.74 44.7841C162.096 45.1723 161.774 45.6932 161.774 46.3466C161.774 46.8674 161.982 47.3078 162.399 47.6676C162.816 48.0275 163.531 48.3163 164.544 48.5341L168.493 49.3295C170.614 49.7652 172.196 50.4659 173.237 51.4318C174.279 52.3977 174.8 53.6667 174.8 55.2386C174.8 56.6686 174.378 57.9233 173.536 59.0028C172.702 60.0824 171.556 60.9252 170.098 61.5312C168.649 62.1278 166.978 62.4261 165.084 62.4261C162.196 62.4261 159.894 61.8248 158.18 60.6222C156.476 59.41 155.477 57.7623 155.183 55.679L161.135 55.3665C161.315 56.2472 161.75 56.9195 162.442 57.3835C163.133 57.8381 164.018 58.0653 165.098 58.0653C166.159 58.0653 167.011 57.8617 167.655 57.4545C168.308 57.0379 168.64 56.5028 168.649 55.8494C168.64 55.3002 168.408 54.8504 167.953 54.5C167.499 54.1402 166.798 53.8655 165.851 53.6761L162.072 52.9233C159.942 52.4972 158.356 51.7585 157.314 50.7074C156.282 49.6562 155.766 48.3163 155.766 46.6875C155.766 45.286 156.144 44.0786 156.902 43.0653C157.669 42.0521 158.744 41.2708 160.126 40.7216C161.518 40.1723 163.147 39.8977 165.013 39.8977C167.768 39.8977 169.937 40.4801 171.518 41.6449C173.109 42.8097 174.037 44.3958 174.303 46.4034ZM184.661 49.3864V62H178.61V32.9091H184.491V44.0312H184.746C185.239 42.7434 186.034 41.7348 187.133 41.0057C188.231 40.267 189.609 39.8977 191.266 39.8977C192.781 39.8977 194.103 40.2292 195.229 40.892C196.366 41.5455 197.246 42.4877 197.871 43.7188C198.506 44.9403 198.818 46.4034 198.809 48.108V62H192.758V49.1875C192.767 47.8428 192.426 46.7964 191.735 46.0483C191.053 45.3002 190.097 44.9261 188.866 44.9261C188.042 44.9261 187.313 45.1013 186.678 45.4517C186.053 45.8021 185.561 46.3134 185.201 46.9858C184.851 47.6487 184.671 48.4489 184.661 49.3864ZM203.571 62V40.1818H209.622V62H203.571ZM206.611 37.3693C205.711 37.3693 204.939 37.071 204.295 36.4744C203.661 35.8684 203.344 35.1439 203.344 34.3011C203.344 33.4678 203.661 32.7528 204.295 32.1562C204.939 31.5502 205.711 31.2472 206.611 31.2472C207.51 31.2472 208.277 31.5502 208.912 32.1562C209.556 32.7528 209.878 33.4678 209.878 34.3011C209.878 35.1439 209.556 35.8684 208.912 36.4744C208.277 37.071 207.51 37.3693 206.611 37.3693ZM214.469 70.1818V40.1818H220.435V43.8466H220.705C220.97 43.2595 221.354 42.6629 221.856 42.0568C222.367 41.4413 223.03 40.9299 223.844 40.5227C224.668 40.1061 225.691 39.8977 226.913 39.8977C228.504 39.8977 229.971 40.3144 231.316 41.1477C232.661 41.9716 233.736 43.2169 234.54 44.8835C235.345 46.5407 235.748 48.6193 235.748 51.1193C235.748 53.553 235.355 55.608 234.569 57.2841C233.792 58.9508 232.732 60.215 231.387 61.0767C230.052 61.929 228.556 62.3551 226.898 62.3551C225.724 62.3551 224.725 62.161 223.901 61.7727C223.087 61.3845 222.419 60.8968 221.898 60.3097C221.378 59.7131 220.98 59.1117 220.705 58.5057H220.521V70.1818H214.469ZM220.393 51.0909C220.393 52.3883 220.573 53.5199 220.933 54.4858C221.292 55.4517 221.813 56.2045 222.495 56.7443C223.177 57.2746 224.005 57.5398 224.981 57.5398C225.966 57.5398 226.799 57.2699 227.481 56.7301C228.163 56.1809 228.679 55.4233 229.029 54.4574C229.389 53.482 229.569 52.3598 229.569 51.0909C229.569 49.8314 229.394 48.7235 229.043 47.767C228.693 46.8106 228.177 46.0625 227.495 45.5227C226.813 44.983 225.975 44.7131 224.981 44.7131C223.996 44.7131 223.163 44.9735 222.481 45.4943C221.808 46.0152 221.292 46.7538 220.933 47.7102C220.573 48.6667 220.393 49.7936 220.393 51.0909ZM257.935 46.4034L252.396 46.7443C252.301 46.2708 252.097 45.8447 251.785 45.4659C251.472 45.0777 251.06 44.7699 250.549 44.5426C250.047 44.3059 249.446 44.1875 248.745 44.1875C247.808 44.1875 247.017 44.3864 246.373 44.7841C245.729 45.1723 245.407 45.6932 245.407 46.3466C245.407 46.8674 245.615 47.3078 246.032 47.6676C246.449 48.0275 247.164 48.3163 248.177 48.5341L252.126 49.3295C254.247 49.7652 255.828 50.4659 256.87 51.4318C257.912 52.3977 258.433 53.6667 258.433 55.2386C258.433 56.6686 258.011 57.9233 257.168 59.0028C256.335 60.0824 255.189 60.9252 253.731 61.5312C252.282 62.1278 250.611 62.4261 248.717 62.4261C245.828 62.4261 243.527 61.8248 241.813 60.6222C240.109 59.41 239.11 57.7623 238.816 55.679L244.768 55.3665C244.948 56.2472 245.383 56.9195 246.075 57.3835C246.766 57.8381 247.651 58.0653 248.731 58.0653C249.791 58.0653 250.644 57.8617 251.288 57.4545C251.941 57.0379 252.272 56.5028 252.282 55.8494C252.272 55.3002 252.04 54.8504 251.586 54.5C251.131 54.1402 250.431 53.8655 249.484 53.6761L245.705 52.9233C243.575 52.4972 241.988 51.7585 240.947 50.7074C239.915 49.6562 239.398 48.3163 239.398 46.6875C239.398 45.286 239.777 44.0786 240.535 43.0653C241.302 42.0521 242.377 41.2708 243.759 40.7216C245.151 40.1723 246.78 39.8977 248.646 39.8977C251.401 39.8977 253.57 40.4801 255.151 41.6449C256.742 42.8097 257.67 44.3958 257.935 46.4034Z" fill="white"/>
</svg>
